<?xml version="1.0" encoding="utf-8"?>
<!-- Generator: Adobe Illustrator 16.0.0, SVG Export Plug-In . SVG Version: 6.00 Build 0)  -->
<!DOCTYPE svg PUBLIC "-//W3C//DTD SVG 1.1//EN" "http://www.w3.org/Graphics/SVG/1.1/DTD/svg11.dtd">
<svg version="1.1" id="Layer_1" xmlns="http://www.w3.org/2000/svg" xmlns:xlink="http://www.w3.org/1999/xlink" x="0px" y="0px"
	 width="119.789px" height="119.986px" viewBox="0 0 119.789 119.986" enable-background="new 0 0 119.789 119.986"
	 xml:space="preserve">
<linearGradient id="SVGID_1_" gradientUnits="userSpaceOnUse" x1="5.252" y1="59.4141" x2="114.0068" y2="59.4141">
	<stop  offset="0" style="stop-color:#84BEE1"/>
	<stop  offset="1" style="stop-color:#29AAE1"/>
</linearGradient>
<path fill="url(#SVGID_1_)" d="M106.929,28.488c-3.909,0-7.078,3.17-7.078,7.078c0,1.922,0.769,3.662,2.01,4.938L82.635,75.377
	c-0.624-0.181-1.282-0.282-1.964-0.282c-1.748,0-3.345,0.637-4.58,1.687L42.134,54.089c0.208-0.667,0.32-1.376,0.32-2.111
	c0-3.91-3.169-7.079-7.078-7.079s-7.078,3.169-7.078,7.079c0,1.666,0.579,3.194,1.543,4.403L5.252,88.339l2.602,2.001l24.571-31.936
	c0.898,0.414,1.896,0.651,2.951,0.651c1.989,0,3.784-0.824,5.07-2.146l33.699,22.519c-0.355,0.844-0.553,1.771-0.553,2.744
	c0,3.91,3.168,7.079,7.078,7.079c3.909,0,7.078-3.169,7.078-7.079c0-2.045-0.873-3.882-2.26-5.174l19.15-34.74
	c0.72,0.246,1.486,0.386,2.289,0.386c3.909,0,7.078-3.169,7.078-7.079C114.007,31.658,110.838,28.488,106.929,28.488z"/>
</svg>
