<?xml version="1.0" encoding="utf-8"?>
<!-- Generator: Adobe Illustrator 16.0.0, SVG Export Plug-In . SVG Version: 6.00 Build 0)  -->
<!DOCTYPE svg PUBLIC "-//W3C//DTD SVG 1.1//EN" "http://www.w3.org/Graphics/SVG/1.1/DTD/svg11.dtd">
<svg version="1.1" id="Layer_1" xmlns="http://www.w3.org/2000/svg" xmlns:xlink="http://www.w3.org/1999/xlink" x="0px" y="0px"
	 width="100.087px" height="100.103px" viewBox="0 0 100.087 100.103" enable-background="new 0 0 100.087 100.103"
	 xml:space="preserve">
<g>
	<g>
		<path fill="#FFFFFF" stroke="#FFFFFF" stroke-miterlimit="10" d="M63.55,37.498c0-9.104-7.381-16.485-16.486-16.485
			c-9.104,0-16.484,7.381-16.484,16.485c0,3.325,2.518,9.011,2.518,9.011l13.979,25.328l13.977-25.328
			C61.052,46.509,63.55,40.823,63.55,37.498z"/>
		<path fill="none" stroke="#FFFFFF" stroke-miterlimit="10" d="M49.437,67.562c5.041,0.42,8.82,2.18,8.82,4.271
			c0,2.42-5,4.369-11.18,4.369s-11.19-1.949-11.19-4.369c0-2.091,3.78-3.851,8.83-4.271"/>
	</g>
	<g>
		<line fill="none" stroke="#444444" stroke-miterlimit="10" x1="38.161" y1="39.679" x2="55.968" y2="39.679"/>
		<line fill="none" stroke="#444444" stroke-miterlimit="10" x1="47.064" y1="48.584" x2="47.064" y2="30.774"/>
	</g>
</g>
</svg>
