<?xml version="1.0" encoding="utf-8"?>
<!-- Generator: Adobe Illustrator 16.0.0, SVG Export Plug-In . SVG Version: 6.00 Build 0)  -->
<!DOCTYPE svg PUBLIC "-//W3C//DTD SVG 1.1//EN" "http://www.w3.org/Graphics/SVG/1.1/DTD/svg11.dtd">
<svg version="1.1" id="Layer_1" xmlns="http://www.w3.org/2000/svg" xmlns:xlink="http://www.w3.org/1999/xlink" x="0px" y="0px"
	 width="120.031px" height="120.229px" viewBox="0 0 120.031 120.229" enable-background="new 0 0 120.031 120.229"
	 xml:space="preserve">
<g opacity="0.3">
	<path fill="#414141" d="M74.32,23.3c-3.19,0-6.24,0.62-9.021,1.76c6.681,5.12,10.99,13.17,10.99,22.21
		c0,5.51-3.56,13.78-3.97,14.71l-0.07,0.17l-0.09,0.15l-8.54,15.48L74.34,97.2l20.32-36.83c0,0,3.63-8.27,3.63-13.1
		C98.29,34.03,87.56,23.3,74.32,23.3z"/>
	<path fill="#414141" d="M70.29,47.27c0-8.45-4.37-15.87-10.97-20.14c-3.74-2.42-8.21-3.83-13-3.83
		c-13.24,0-23.971,10.73-23.971,23.97c0,4.83,3.66,13.1,3.66,13.1L46.34,97.2l13-23.56l7.32-13.27
		C66.66,60.37,70.29,52.1,70.29,47.27z"/>
</g>
</svg>
