<?xml version="1.0" encoding="utf-8"?>
<!-- Generator: Adobe Illustrator 16.0.0, SVG Export Plug-In . SVG Version: 6.00 Build 0)  -->
<!DOCTYPE svg PUBLIC "-//W3C//DTD SVG 1.1//EN" "http://www.w3.org/Graphics/SVG/1.1/DTD/svg11.dtd">
<svg version="1.1" id="Layer_1" xmlns="http://www.w3.org/2000/svg" xmlns:xlink="http://www.w3.org/1999/xlink" x="0px" y="0px"
	 width="640px" height="1136px" viewBox="0 0 640 1136" enable-background="new 0 0 640 1136" xml:space="preserve">
<rect y="438" fill="#444444" width="640" height="106"/>
<rect y="670" fill="#444444" width="640" height="106"/>
<g>
	<g>
		<g>
			<path fill="none" stroke="#FFFFFF" stroke-miterlimit="10" d="M244.387,706.016l-0.987-3.756l-0.073,0.019
				c-0.336-1.822-1.921-3.201-3.838-3.201c-2.16,0-3.911,1.751-3.911,3.909c0,0.454,0.093,0.885,0.234,1.288l-0.011,0.005
				l0.033,0.057c0.118,0.326,0.273,0.629,0.471,0.906l0.939,3.825"/>
			<path fill="none" stroke="#FFFFFF" stroke-miterlimit="10" d="M261.904,728.188l-10.683-17.746
				c-0.088-0.161-0.187-0.313-0.283-0.471l-0.026-0.039c-1.396-2.199-3.775-3.717-6.524-3.916c-0.202-0.016-0.409-0.021-0.615-0.021
				c-2.627,0-4.976,1.195-6.527,3.073c-1.209,1.465-1.936,3.341-1.936,5.388c0,1.463,0.37,2.834,1.021,4.035l3.214,16.814"/>
		</g>
		<circle fill="none" stroke="#FFFFFF" stroke-miterlimit="10" cx="252.231" cy="736.482" r="12.743"/>
	</g>
	<g>
		<g>
			<path fill="none" stroke="#FFFFFF" stroke-miterlimit="10" d="M227.938,709.067l0.939-3.825c0.199-0.277,0.353-0.58,0.471-0.906
				l0.033-0.057l-0.011-0.005c0.142-0.403,0.234-0.834,0.234-1.288c0-2.158-1.75-3.909-3.91-3.909c-1.917,0-3.502,1.379-3.838,3.201
				l-0.073-0.019l-0.987,3.756"/>
			<path fill="none" stroke="#FFFFFF" stroke-miterlimit="10" d="M225.637,735.305l3.214-16.814
				c0.652-1.201,1.021-2.572,1.021-4.035c0-2.047-0.727-3.923-1.935-5.388c-1.552-1.878-3.901-3.073-6.527-3.073
				c-0.206,0-0.413,0.006-0.615,0.021c-2.749,0.199-5.128,1.717-6.524,3.916l-0.026,0.039c-0.097,0.157-0.195,0.31-0.284,0.471
				l-10.683,17.746"/>
		</g>
		<circle fill="none" stroke="#FFFFFF" stroke-miterlimit="10" cx="212.95" cy="736.482" r="12.743"/>
	</g>
	<path fill="none" stroke="#FFFFFF" stroke-miterlimit="10" d="M228.387,720.752l-1.841,9.582c3.805-3.804,8.246-3.8,12.049,0.002
		l-1.802-9.583C233.975,717.936,231.206,717.934,228.387,720.752z"/>
</g>
<circle fill="#444444" stroke="#FFFFFF" stroke-miterlimit="10" cx="561.5" cy="490.739" r="26.504"/>
<path fill="#FFFFFF" d="M579.267,509.983c-3.39-4.854-9.539-2.321-11.481-6.009c0,0-0.281-2.848,0.021-3.273
	c2.152-3.038,3.162-7.949,3.389-8.948c0.15-0.662,0.655-1.212,0.835-1.463c0.041-0.057,0.419-2.25,0.464-3.676
	c0.099-3.176-0.681-1.674-0.74-2.254c-0.345-3.416-1.113-8.027-2.217-8.724c-2.456-1.547-5.383-2.878-8.038-2.716
	c-2.655-0.162-5.583,1.168-8.038,2.716c-1.104,0.694-1.872,5.305-2.216,8.722c-0.06,0.58-0.839-0.926-0.741,2.25
	c0.044,1.427,0.423,3.615,0.464,3.672c0.181,0.252,0.698,0.789,0.835,1.453c0.166,0.804,1.011,5.535,3.389,8.928
	c0.3,0.429,0.022,3.313,0.022,3.313c-1.943,3.688-8.212,2.037-11.487,5.913c0,0,7.051,7.169,17.771,7.169
	C572.221,517.057,579.267,509.983,579.267,509.983z"/>
<g>
	<path fill="none" stroke="#FFFFFF" stroke-miterlimit="10" d="M578.84,742.421c-3.39-4.939-9.09-3.114-11.033-6.866
		c0,0-0.281-2.897,0.021-3.331c2.151-3.092,3.162-8.09,3.389-9.104c0.15-0.674,0.655-1.233,0.835-1.488
		c0.041-0.059,0.419-2.29,0.464-3.74c0.099-3.232-0.681-1.703-0.74-2.294c-0.345-3.476-1.113-8.168-2.217-8.876
		c-2.456-1.574-5.383-2.928-8.038-2.764c-2.655-0.164-5.583,1.188-8.038,2.764c-1.104,0.706-1.872,5.397-2.216,8.874
		c-0.06,0.591-0.839-0.942-0.741,2.29c0.044,1.451,0.423,3.678,0.464,3.736c0.181,0.256,0.698,0.803,0.835,1.479
		c0.166,0.818,1.011,5.632,3.389,9.084c0.3,0.436,0.022,3.371,0.022,3.371c-1.943,3.752-7.758,2.922-11.033,6.866"/>
	<circle fill="none" stroke="#FFFFFF" stroke-miterlimit="10" cx="561.5" cy="722.336" r="26.504"/>
</g>
<g>
	<line fill="none" stroke="#FFFFFF" stroke-miterlimit="10" x1="383.074" y1="713.23" x2="400.88" y2="713.23"/>
	<line fill="none" stroke="#FFFFFF" stroke-miterlimit="10" x1="391.978" y1="722.136" x2="391.978" y2="704.326"/>
</g>
<g>
	<path fill="none" stroke="#FFFFFF" stroke-miterlimit="10" d="M408.462,711.396c0-9.104-7.381-16.485-16.485-16.485
		s-16.485,7.381-16.485,16.485c0,3.325,2.518,9.011,2.518,9.011l13.979,25.328l13.978-25.328
		C405.966,720.406,408.462,714.721,408.462,711.396z"/>
	<path fill="none" stroke="#FFFFFF" stroke-miterlimit="10" d="M394.35,741.46c5.04,0.42,8.82,2.18,8.82,4.271
		c0,2.42-5,4.369-11.18,4.369c-6.18,0-11.19-1.949-11.19-4.369c0-2.091,3.78-3.851,8.83-4.271"/>
</g>
<g>
	<g>
		<circle fill="none" stroke="#FFFFFF" stroke-miterlimit="10" cx="78" cy="724" r="27.475"/>
		<path fill="#FFFFFF" stroke="#FFFFFF" stroke-miterlimit="10" d="M67.188,699.752c0,0,1.54-0.48,1.425,1.009
			c-0.114,1.489,0.121-1.259,1.376-0.114c1.256,1.146,1.6,3.549,3.432,3.893s1.935-0.018,2.394-0.018
			c0.457,0,2.066-0.68,2.639-0.106c0.572,0.572,1.491,1.837,1.261,2.407c-0.228,0.574-2.058,0.118-2.287,0.92
			c-0.23,0.801-0.687,1.145,0,1.832c0.713,0.713-2.414,0.555-0.915,1.605c0.65,0.458-0.687,0.686,0.229,0.801
			c0.915,0.115,1.487,0,1.258,1.259s-0.344,0.688,0,1.374c0.343,0.688-0.801,0.916-0.916,1.602
			c-0.115,0.688-0.916,0.688-1.604,0.916c-0.686,0.23-1.601,0.917-2.06,0.917s-1.374,1.144-2.518,0.687
			c-1.146-0.457-2.405-0.344-2.748,0.114c-0.344,0.458-2.195,1.805-1.842,2.276c0.354,0.472-0.045,2.875-0.045,2.875
			s0.627,1.145,1.314,1.373c0.686,0.23,2.405-0.229,3.321,0c0.915,0.23,3.09-0.325,4.006,0.066c0.915,0.392,2.633,0.507,3.09,0.621
			c0.458,0.113,0.215,0.23,1.309,0.917c1.096,0.687,1.438,1.146,1.667,1.717c0.229,0.571,1.146,2.173,1.261,2.632
			c0.114,0.459-0.229,1.602-0.688,2.403c-0.458,0.802,0.228,1.833-0.573,2.177S78,736.478,78,736.478s-2.403,1.487-2.633,2.403
			c-0.229,0.916-0.459,1.031-0.573,1.49c-0.114,0.457-1.062,1.258-0.531,1.831c0.531,0.573-1.602,3.776-2.33,4.234
			s-1.372-0.571-1.944-0.571c-0.573,0-0.231-1.946-0.231-1.946l-1.374-1.374c0,0,0.915-8.93,0.572-9.846
			c-0.343-0.914-2.403-1.373-3.891-1.83c-1.489-0.458-0.459-4.465-0.802-6.068c-0.341-1.594,0.391-2.359,0.802-2.922
			c0.457-0.626-0.229-5.549,0.915-5.092c1.145,0.459-4.235-1.373-2.862-1.03c1.375,0.344-4.968,3.206-5.196,2.634
			c-0.229-0.571,1.419-2.861,0.16-2.861s1.234-3.092,0.573-2.748c-0.663,0.343,1.718-1.375,1.946-3.205
			c0.229-1.832-0.384-2.633-0.021-3.549c0.364-0.917-0.118-3.175-0.118-3.175L67.188,699.752z"/>
	</g>
	<path fill="#FFFFFF" stroke="#FFFFFF" stroke-miterlimit="10" d="M88.355,698.887c-1.461,0.791-1.112,2.745-1.027,3.34
		c0.084,0.594,1.103-0.648,1.697,0.117c0.594,0.763,1.273,1.268,1.612,1.268s0.255,1.673,0.424,2.012
		c0.17,0.342,0.188-1.238,0.953-1.323c0.764-0.085,0.831,0.323,1-0.354c0.169-0.68,0.904-2.854-0.369-3.193
		c-1.273-0.342-1.838-0.111-1.838-0.111l-0.916-0.242L88.355,698.887z"/>
	<path fill="#FFFFFF" stroke="#FFFFFF" stroke-miterlimit="10" d="M101.583,709.898c0,0-1.08,1.191-1.589,1.361
		s-2.131,2.225-2.471,3.158c-0.339,0.936-1.697,0.256-1.528,0.936c0.169,0.678-0.373,0.423-0.517,1.611
		c-0.143,1.189-1.037,1.357,0.432,1.528s1.01,1.677,1.697,2.966c0.709,1.33,2.97-1.221,2.631-0.797
		c-0.339,0.424,1.962-0.008,2.046,1.378c0.085,1.386,0.679,0.397,1.103,1.075c0.424,0.678,1.976-0.312,0.085,1.387
		c-0.157,0.141,0.594,0.678,0.933,0.594c0.339-0.085-0.934,0.593-0.764,0.339c0.17-0.255,0.424,0.359,0.424,1.283
		s-0.34,0.414,0,1.603c0.339,1.189,1.332-2.287,1.332-2.287l-1.162-8.238l-1.015-4.705L101.583,709.898z"/>
</g>
<rect y="197" fill="#444444" width="640" height="106"/>
<g>
	<g>
		<g>
			<path fill="none" stroke="#FFFFFF" stroke-miterlimit="10" d="M244.387,233.016l-0.987-3.756l-0.073,0.019
				c-0.336-1.822-1.921-3.201-3.838-3.201c-2.16,0-3.911,1.751-3.911,3.909c0,0.454,0.093,0.885,0.234,1.288l-0.011,0.005
				l0.033,0.057c0.118,0.326,0.273,0.629,0.471,0.906l0.939,3.825"/>
			<path fill="none" stroke="#FFFFFF" stroke-miterlimit="10" d="M261.904,255.188l-10.683-17.746
				c-0.088-0.161-0.187-0.313-0.283-0.471l-0.026-0.039c-1.396-2.199-3.775-3.717-6.524-3.916c-0.202-0.016-0.409-0.021-0.615-0.021
				c-2.627,0-4.976,1.195-6.527,3.073c-1.209,1.465-1.936,3.341-1.936,5.388c0,1.463,0.37,2.834,1.021,4.035l3.214,16.814"/>
		</g>
		<circle fill="none" stroke="#FFFFFF" stroke-miterlimit="10" cx="252.231" cy="263.482" r="12.743"/>
	</g>
	<g>
		<g>
			<path fill="none" stroke="#FFFFFF" stroke-miterlimit="10" d="M227.938,236.067l0.939-3.825c0.199-0.277,0.353-0.58,0.471-0.906
				l0.033-0.057l-0.011-0.005c0.142-0.403,0.234-0.834,0.234-1.288c0-2.158-1.75-3.909-3.91-3.909c-1.917,0-3.502,1.379-3.838,3.201
				l-0.073-0.019l-0.987,3.756"/>
			<path fill="none" stroke="#FFFFFF" stroke-miterlimit="10" d="M225.637,262.305l3.214-16.814
				c0.652-1.201,1.021-2.572,1.021-4.035c0-2.047-0.727-3.923-1.935-5.388c-1.552-1.878-3.901-3.073-6.527-3.073
				c-0.206,0-0.413,0.006-0.615,0.021c-2.749,0.199-5.128,1.717-6.524,3.916l-0.026,0.039c-0.097,0.157-0.195,0.31-0.284,0.471
				l-10.683,17.746"/>
		</g>
		<circle fill="none" stroke="#FFFFFF" stroke-miterlimit="10" cx="212.95" cy="263.482" r="12.743"/>
	</g>
	<path fill="none" stroke="#FFFFFF" stroke-miterlimit="10" d="M228.387,247.752l-1.841,9.582c3.805-3.804,8.246-3.8,12.049,0.002
		l-1.802-9.583C233.975,244.936,231.206,244.934,228.387,247.752z"/>
</g>
<g>
	<path fill="none" stroke="#FFFFFF" stroke-miterlimit="10" d="M578.84,269.421c-3.39-4.939-9.09-3.114-11.033-6.866
		c0,0-0.281-2.897,0.021-3.331c2.151-3.092,3.162-8.09,3.389-9.104c0.15-0.674,0.655-1.233,0.835-1.488
		c0.041-0.059,0.419-2.29,0.464-3.74c0.099-3.232-0.681-1.703-0.74-2.294c-0.345-3.476-1.113-8.168-2.217-8.876
		c-2.456-1.574-5.383-2.928-8.038-2.764c-2.655-0.164-5.583,1.188-8.038,2.764c-1.104,0.706-1.872,5.397-2.216,8.874
		c-0.06,0.591-0.839-0.942-0.741,2.29c0.044,1.451,0.423,3.678,0.464,3.736c0.181,0.256,0.698,0.803,0.835,1.479
		c0.166,0.817,1.011,5.632,3.389,9.084c0.3,0.436,0.022,3.371,0.022,3.371c-1.943,3.752-7.758,2.922-11.033,6.866"/>
	<circle fill="none" stroke="#FFFFFF" stroke-miterlimit="10" cx="561.5" cy="249.336" r="26.504"/>
</g>
<g>
	<line fill="none" stroke="#FFFFFF" stroke-miterlimit="10" x1="383.074" y1="240.23" x2="400.88" y2="240.23"/>
	<line fill="none" stroke="#FFFFFF" stroke-miterlimit="10" x1="391.978" y1="249.136" x2="391.978" y2="231.326"/>
</g>
<g>
	<path fill="none" stroke="#FFFFFF" stroke-miterlimit="10" d="M408.462,238.396c0-9.104-7.381-16.485-16.485-16.485
		s-16.485,7.381-16.485,16.485c0,3.325,2.518,9.011,2.518,9.011l13.979,25.328l13.978-25.328
		C405.966,247.406,408.462,241.721,408.462,238.396z"/>
	<path fill="none" stroke="#FFFFFF" stroke-miterlimit="10" d="M394.35,268.46c5.04,0.42,8.82,2.18,8.82,4.271
		c0,2.42-5,4.369-11.18,4.369c-6.18,0-11.19-1.949-11.19-4.369c0-2.091,3.78-3.851,8.83-4.271"/>
</g>
<g>
	<g>
		<g>
			<path fill="#FFFFFF" stroke="#444444" stroke-miterlimit="10" d="M247.296,473.016l-0.987-3.756l-0.073,0.019
				c-0.336-1.822-1.921-3.201-3.838-3.201c-2.16,0-3.911,1.751-3.911,3.909c0,0.454,0.093,0.885,0.234,1.288l-0.011,0.005
				l0.033,0.057c0.118,0.326,0.272,0.629,0.471,0.906l0.939,3.825"/>
			<path fill="#FFFFFF" stroke="#444444" stroke-miterlimit="10" d="M264.812,495.188l-10.683-17.746
				c-0.088-0.161-0.187-0.313-0.283-0.471l-0.026-0.039c-1.396-2.199-3.775-3.717-6.524-3.916c-0.202-0.016-0.409-0.021-0.615-0.021
				c-2.627,0-4.976,1.195-6.527,3.073c-1.209,1.465-1.936,3.341-1.936,5.388c0,1.463,0.37,2.834,1.021,4.035l3.214,16.814"/>
		</g>
		<circle fill="#FFFFFF" stroke="#444444" stroke-miterlimit="10" cx="255.141" cy="503.482" r="12.743"/>
	</g>
	<g>
		<g>
			<path fill="#FFFFFF" stroke="#444444" stroke-miterlimit="10" d="M230.847,476.067l0.939-3.825
				c0.198-0.277,0.353-0.58,0.471-0.906l0.033-0.057l-0.011-0.005c0.142-0.403,0.234-0.834,0.234-1.288
				c0-2.158-1.75-3.909-3.911-3.909c-1.917,0-3.502,1.379-3.838,3.201l-0.073-0.019l-0.987,3.756"/>
			<path fill="#FFFFFF" stroke="#444444" stroke-miterlimit="10" d="M228.546,502.305l3.214-16.814
				c0.652-1.201,1.022-2.572,1.022-4.035c0-2.047-0.727-3.923-1.936-5.388c-1.552-1.878-3.901-3.073-6.527-3.073
				c-0.206,0-0.413,0.006-0.615,0.021c-2.749,0.199-5.128,1.717-6.524,3.916l-0.026,0.039c-0.097,0.157-0.196,0.31-0.284,0.471
				l-10.683,17.746"/>
		</g>
		<circle fill="#FFFFFF" stroke="#444444" stroke-miterlimit="10" cx="215.859" cy="503.482" r="12.743"/>
	</g>
	<path fill="#FFFFFF" stroke="#444444" stroke-miterlimit="10" d="M231.296,487.752l-1.841,9.582
		c3.805-3.804,8.246-3.8,12.049,0.002l-1.802-9.583C236.884,484.936,234.115,484.934,231.296,487.752z"/>
</g>
<g>
	<path fill="#FFFFFF" stroke="#FFFFFF" stroke-miterlimit="10" d="M408.462,479.396c0-9.104-7.381-16.485-16.485-16.485
		s-16.485,7.381-16.485,16.485c0,3.325,2.518,9.011,2.518,9.011l13.979,25.328l13.978-25.328
		C405.966,488.406,408.462,482.721,408.462,479.396z"/>
	<path fill="none" stroke="#FFFFFF" stroke-miterlimit="10" d="M394.35,509.46c5.04,0.42,8.82,2.18,8.82,4.271
		c0,2.42-5,4.369-11.18,4.369c-6.18,0-11.19-1.949-11.19-4.369c0-2.091,3.78-3.851,8.83-4.271"/>
</g>
<g>
	<g>
		<circle fill="#FFFFFF" stroke="#FFFFFF" stroke-miterlimit="10" cx="78.001" cy="724" r="26.782"/>
		<path fill="#444444" stroke="#444444" stroke-miterlimit="10" d="M66.129,698.52c0,0,2.833,1.375,2.721,2.827
			c-0.111,1.452,0.118-1.228,1.342-0.111s1.559,3.46,3.345,3.794c1.786,0.335,1.887-0.018,2.333-0.018
			c0.446,0,2.014-0.661,2.572-0.104c0.558,0.559,1.453,1.791,1.23,2.348c-0.223,0.559-2.006,0.114-2.23,0.896
			c-0.225,0.78-0.669,1.116,0,1.785c0.695,0.695-2.353,0.541-0.892,1.564c0.633,0.447-0.669,0.668,0.223,0.781
			c0.892,0.111,1.45,0,1.227,1.228c-0.222,1.228-0.334,0.671,0,1.34s-0.78,0.892-0.892,1.562c-0.112,0.669-0.893,0.669-1.563,0.892
			c-0.669,0.225-1.562,0.894-2.008,0.894s-1.339,1.115-2.454,0.67c-1.117-0.446-2.344-0.335-2.679,0.111
			c-0.335,0.445-2.14,1.76-1.795,2.219c0.345,0.459-0.043,2.803-0.043,2.803s0.611,1.115,1.281,1.339s2.344-0.224,3.237,0
			c0.892,0.224,3.012-0.317,3.905,0.063c0.892,0.383,2.566,0.494,3.012,0.605c0.447,0.111,0.21,0.225,1.276,0.895
			c1.068,0.67,1.401,1.116,1.625,1.674c0.223,0.557,1.117,2.118,1.229,2.564c0.111,0.447-0.223,1.562-0.67,2.344
			c-0.446,0.781,0.223,1.787-0.558,2.121C80.121,735.94,78,736.163,78,736.163s-2.342,1.45-2.566,2.343
			c-0.223,0.893-0.447,1.006-0.558,1.452c-0.111,0.444-1.035,1.227-0.518,1.784c0.518,0.559-1.561,3.682-2.271,4.129
			s-1.336-0.558-1.895-0.558c-0.558,0-0.226-1.897-0.226-1.897l-1.339-1.338c0,0,0.892-8.706,0.558-9.598
			c-0.334-0.893-2.342-1.34-3.793-1.785s-0.447-4.353-0.782-5.914c-0.333-1.555,0.381-2.301,0.782-2.85
			c0.446-0.609-0.224-5.408,0.892-4.963c1.116,0.447-4.129-1.339-2.79-1.004c1.339,0.334-4.843,3.125-5.065,2.567
			c-0.223-0.558,1.384-2.79,0.156-2.79s1.204-3.014,0.559-2.679c-0.646,0.335,1.674-1.34,1.897-3.124
			c0.223-1.785-0.375-2.566-0.021-3.459c0.355-0.895-1.115-4.096-1.115-4.096L66.129,698.52z"/>
	</g>
	<path fill="#444444" stroke="#444444" stroke-miterlimit="10" d="M89.095,697.52c-1.424,0.771-2.084,4.676-2.001,5.256
		c0.083,0.58,1.075-0.631,1.654,0.114c0.58,0.743,1.241,1.235,1.572,1.235s0.249,1.631,0.414,1.961
		c0.166,0.333,0.184-1.207,0.928-1.289c0.745-0.083,0.81,0.314,0.975-0.346c0.165-0.663,1.881-4.783,0.64-5.114
		s-1.792-0.108-1.792-0.108l-0.893-0.234L89.095,697.52z"/>
	<path fill="#444444" stroke="#444444" stroke-miterlimit="10" d="M101.989,709.254c0,0-2.052,2.162-2.549,2.326
		c-0.497,0.166-2.078,2.169-2.409,3.08c-0.331,0.91-1.655,0.248-1.49,0.91s-0.363,0.414-0.503,1.572
		c-0.14,1.158-1.011,1.322,0.421,1.489c1.432,0.167,0.984,1.634,1.654,2.891c0.692,1.296,2.896-1.189,2.565-0.776
		s1.913-0.008,1.995,1.344c0.083,1.35,0.661,0.387,1.075,1.048s1.926-0.304,0.083,1.351c-0.153,0.139,0.58,0.662,0.91,0.58
		c0.331-0.084-0.91,0.578-0.745,0.33c0.166-0.248,0.414,0.35,0.414,1.25s0.651,1.723,1.372,2.688
		c0.84,1.125,0.926-4.354,0.926-4.354l-1.132-8.031l-0.989-4.586L101.989,709.254z"/>
</g>
<g>
	<line fill="none" stroke="#444444" stroke-miterlimit="10" x1="383.074" y1="481.23" x2="400.88" y2="481.23"/>
	<line fill="none" stroke="#444444" stroke-miterlimit="10" x1="391.978" y1="490.136" x2="391.978" y2="472.326"/>
</g>
<g>
	<path fill="none" stroke="#FFFFFF" stroke-miterlimit="10" d="M100.5,272.377c0,0.619-0.503,1.123-1.125,1.123H56.624
		c-0.62,0-1.124-0.504-1.124-1.123v-42.753c0-0.62,0.503-1.124,1.124-1.124h42.752c0.621,0,1.125,0.504,1.125,1.124V272.377z"/>
	<rect x="61" y="243" fill="#FFFFFF" width="6" height="6"/>
	<rect x="61" y="252" fill="#FFFFFF" width="6" height="6"/>
	<rect x="61" y="262" fill="#FFFFFF" width="6" height="6"/>
	<rect x="62.395" y="233.379" fill="#FFFFFF" width="2" height="2"/>
	<rect x="65.395" y="233.379" fill="#FFFFFF" width="2" height="2"/>
	<rect x="68.395" y="233.379" fill="#FFFFFF" width="2" height="2"/>
	<line fill="none" stroke="#FFFFFF" stroke-miterlimit="10" x1="72" y1="248.5" x2="95" y2="248.5"/>
	<line fill="none" stroke="#FFFFFF" stroke-miterlimit="10" x1="72" y1="257.5" x2="95" y2="257.5"/>
	<line fill="none" stroke="#FFFFFF" stroke-miterlimit="10" x1="72" y1="267.5" x2="95" y2="267.5"/>
</g>
</svg>
