<?xml version="1.0" encoding="utf-8"?>
<!-- Generator: Adobe Illustrator 16.0.0, SVG Export Plug-In . SVG Version: 6.00 Build 0)  -->
<!DOCTYPE svg PUBLIC "-//W3C//DTD SVG 1.1//EN" "http://www.w3.org/Graphics/SVG/1.1/DTD/svg11.dtd">
<svg version="1.1" id="Layer_1" xmlns="http://www.w3.org/2000/svg" xmlns:xlink="http://www.w3.org/1999/xlink" x="0px" y="0px"
	 width="120.031px" height="120.229px" viewBox="0 0 120.031 120.229" enable-background="new 0 0 120.031 120.229"
	 xml:space="preserve">
<g>
	<path fill="#D5D7D8" d="M96.438,37.567H82.092l-8.34-8.358c-0.01-0.011-0.019-0.019-0.027-0.027l-0.015-0.014v0.001
		c-1.254-1.239-2.975-2.007-4.877-2.007H51.489c-2.015,0-3.812,0.871-5.081,2.243l-0.007-0.02l-8.167,8.182H23.594
		c-3.831,0-6.938,3.106-6.938,6.938V86.13c0,3.831,3.106,6.937,6.938,6.937h72.844c3.831,0,6.938-3.106,6.938-6.937V44.504
		C103.375,40.673,100.269,37.567,96.438,37.567z M60.016,82.661c-10.52,0-19.078-8.561-19.078-19.082
		c0-10.518,8.559-19.075,19.078-19.075s19.078,8.557,19.078,19.075C79.094,74.101,70.535,82.661,60.016,82.661z"/>
	<circle fill="#D5D7D8" cx="60.016" cy="63.583" r="15.61"/>
</g>
</svg>
