<?xml version="1.0" encoding="utf-8"?>
<!-- Generator: Adobe Illustrator 16.0.0, SVG Export Plug-In . SVG Version: 6.00 Build 0)  -->
<!DOCTYPE svg PUBLIC "-//W3C//DTD SVG 1.1//EN" "http://www.w3.org/Graphics/SVG/1.1/DTD/svg11.dtd">
<svg version="1.1" id="Layer_1" xmlns="http://www.w3.org/2000/svg" xmlns:xlink="http://www.w3.org/1999/xlink" x="0px" y="0px"
	 width="640px" height="1136px" viewBox="0 0 640 1136" enable-background="new 0 0 640 1136" xml:space="preserve">
<rect x="4" fill="#ED555A" width="640" height="1136"/>
<polygon opacity="0.15" points="645,611 122.23,611 103.174,595.338 84.221,611 5,611 5,464 645,464 "/>
<rect x="5" opacity="0.15" width="640" height="69"/>
<rect x="5" y="17.347" fill="none" width="640" height="90.845"/>
<text transform="matrix(1 0 0 1 217.8652 51.6182)" fill="#FFFFFF" font-family="'HelveticaNeue-Light'" font-size="48">UTFORSK</text>
<circle fill="#FFFFFF" stroke="#FFFFFF" stroke-width="2" stroke-miterlimit="10" stroke-opacity="0.15" cx="410" cy="277.081" r="42.502"/>
<circle fill="#FFFFFF" stroke="#FFFFFF" stroke-width="2" stroke-miterlimit="10" stroke-opacity="0.15" cx="327.021" cy="384.573" r="41.953"/>
<rect x="38.101" y="256.801" fill="none" width="286.899" height="159.312"/>
<text transform="matrix(1 0 0 1 38.1006 283.9326)"><tspan x="0" y="0" fill="#FFFFFF" font-family="'HelveticaNeue-Light'" font-size="38">Vanskelighet:</tspan><tspan x="0" y="110" fill="#FFFFFF" font-family="'HelveticaNeue-Light'" font-size="38">Tid:</tspan></text>
<path opacity="0.15" fill="none" stroke="#000000" stroke-width="2" stroke-miterlimit="10" d="M614.301,276.568
	c0-22.603-17.859-41.024-40.236-41.946v-0.045L322.168,235.6v0.049c-0.541-0.028-1.084-0.049-1.633-0.049
	c-20.201,0-36.58,18.802-36.58,41.991c0,23.19,16.379,41.991,36.58,41.991c0.549,0,1.092-0.02,1.633-0.047v0.047l251.896-1.022
	v-0.043C596.441,317.595,614.301,299.171,614.301,276.568z"/>
<path opacity="0.15" fill="none" stroke="#000000" stroke-width="2" stroke-miterlimit="10" d="M614.301,383.882
	c0-22.602-17.859-41.024-40.236-41.945v-0.045l-388.596,1.022v0.048c-0.543-0.028-1.084-0.048-1.635-0.048
	c-20.199,0-36.578,18.801-36.578,41.99c0,23.191,16.379,41.992,36.578,41.992c0.551,0,1.092-0.02,1.635-0.047v0.047l388.596-1.022
	v-0.044C596.441,424.909,614.301,406.484,614.301,383.882z"/>
<g>
	<circle fill="none" stroke="#FFFFFF" stroke-width="6" stroke-miterlimit="10" cx="103.501" cy="537.271" r="34.118"/>
	<polygon fill="#FFFFFF" points="97.264,504 103.272,489.787 109.281,504 	"/>
	<polygon fill="#FFFFFF" points="70,543.508 55.787,537.5 70,531.49 	"/>
	<polygon fill="#FFFFFF" points="109.738,571 103.729,585.213 97.719,571 	"/>
	<polygon fill="#FFFFFF" points="137,531.035 151.211,537.045 137,543.053 	"/>
	<g>
		<polygon fill="#29AAE1" points="98.221,532.195 140.432,500.895 109.131,543.105 		"/>
		<polygon fill="#FFFFFF" points="98.221,532.195 66.92,574.406 109.131,543.105 		"/>
		<circle fill="#CBCBCB" cx="103.676" cy="537.651" r="4.863"/>
	</g>
</g>
<rect x="6" y="196" opacity="0.15" width="640" height="2"/>
<rect x="5" y="678" opacity="0.15" fill="#444444" width="640" height="4"/>
<g>
	<g>
		<g>
			<path fill="#CBCBCB" d="M528.741,504.459c7.408-1.906,15.577,0.549,20.644,6.925c1.638,2.06,2.803,4.344,3.511,6.721
				c2.265,7.594-0.14,16.137-6.724,21.37c-2.268,1.801-4.809,3.032-7.443,3.711c-7.408,1.905-15.578-0.551-20.645-6.927
				c-4.52-5.686-5.443-13.072-3.086-19.417c1.227-3.303,3.34-6.319,6.298-8.67C523.564,506.369,526.104,505.137,528.741,504.459
				 M527.807,500.822l0.936,3.637L527.807,500.822c-2.905,0.748-6.213,2.316-8.847,4.408c-3.392,2.696-5.979,6.259-7.482,10.303
				c-1.397,3.764-1.822,7.851-1.229,11.819c0.613,4.097,2.307,7.984,4.895,11.243c2.91,3.66,6.791,6.36,11.223,7.803
				c4.315,1.405,8.914,1.551,13.299,0.424c3.234-0.832,6.21-2.316,8.844-4.408c3.785-3.009,6.529-7.034,7.936-11.645
				c1.373-4.496,1.391-9.248,0.051-13.738c-0.864-2.905-2.268-5.592-4.169-7.984c-2.909-3.66-6.79-6.359-11.221-7.802
				C536.789,499.841,532.649,499.576,527.807,500.822L527.807,500.822z"/>
		</g>
		
			<rect x="538.048" y="553.403" transform="matrix(0.6222 0.7829 -0.7829 0.6222 646.9152 -227.8344)" fill="#CBCBCB" width="42.895" height="5.777"/>
	</g>
</g>
<polygon fill="#FDD26C" points="327.021,497.582 336.904,528 368.891,528 343.014,546.166 352.896,576.266 327.021,557.307 
	301.146,576.027 311.029,546.205 285.152,528 317.139,528 "/>
<g opacity="0.2">
	<line fill="none" stroke="#000000" stroke-width="2" stroke-miterlimit="10" x1="312.719" y1="290.9" x2="340.358" y2="263.26"/>
	<line fill="none" stroke="#000000" stroke-width="2" stroke-miterlimit="10" x1="340.359" y1="290.9" x2="312.717" y2="263.26"/>
</g>
<g opacity="0.2">
	
		<line fill="none" stroke="#000000" stroke-width="2" stroke-miterlimit="10" x1="174.859" y1="398.394" x2="202.499" y2="370.753"/>
	<line fill="none" stroke="#000000" stroke-width="2" stroke-miterlimit="10" x1="202.5" y1="398.394" x2="174.858" y2="370.753"/>
</g>
<rect x="539" y="259.95" fill="none" width="50.482" height="78.441"/>
<text transform="matrix(1 0 0 1 548.2578 294.2217)" opacity="0.15" stroke="#000000" stroke-width="2" stroke-miterlimit="10" font-family="'HelveticaNeue-Light'" font-size="48">III</text>
<rect x="385.734" y="259.95" fill="none" width="50.482" height="61.943"/>
<text transform="matrix(1 0 0 1 405.6484 294.2217)" fill="#ED555A" font-family="'HelveticaNeue-Light'" font-size="48">I</text>
<rect x="462.367" y="259.95" fill="none" width="50.482" height="78.441"/>
<text transform="matrix(1 0 0 1 476.9531 294.2217)" opacity="0.15" stroke="#000000" stroke-width="2" stroke-miterlimit="10" font-family="'HelveticaNeue-Light'" font-size="48">II</text>
<g>
	<line fill="none" stroke="#FFFFFF" stroke-miterlimit="10" x1="387.074" y1="1074.23" x2="404.881" y2="1074.23"/>
	<line fill="none" stroke="#FFFFFF" stroke-miterlimit="10" x1="395.979" y1="1083.136" x2="395.979" y2="1065.326"/>
</g>
<polygon fill="#FFFFFF" stroke="#FFFFFF" stroke-miterlimit="10" points="643.5,1036.5 3.5,1036.5 3.5,611.5 84.261,611.5 
	103.184,596.5 122.252,611.5 643.5,611.5 "/>
<line opacity="0.15" fill="#444444" stroke="#000000" stroke-miterlimit="10" x1="26" y1="774.5" x2="645" y2="773.5"/>
<line opacity="0.15" fill="#444444" stroke="#000000" stroke-miterlimit="10" x1="25" y1="867.5" x2="644" y2="866.5"/>
<line opacity="0.15" fill="#444444" stroke="#000000" stroke-miterlimit="10" x1="25" y1="959.5" x2="644" y2="958.5"/>
<g>
	<rect x="25" y="717" fill="none" width="398" height="59.5"/>
	<text transform="matrix(1 0 0 1 25 736.9922)" fill="#444444" font-family="'HelveticaNeue-Light'" font-size="28">Siljes supertur</text>
</g>
<g>
	<rect x="410.975" y="717" fill="none" width="60" height="59.5"/>
	<text transform="matrix(1 0 0 1 410.9746 736.9922)" fill="#444444" font-family="'HelveticaNeue-Light'" font-size="28">2t</text>
</g>
<rect x="312.531" y="371.202" fill="none" width="60" height="59.5"/>
<text transform="matrix(1 0 0 1 312.5312 398.334)" fill="#ED555A" font-family="'HelveticaNeue-Light'" font-size="38">5t</text>
<g>
	<rect x="410.975" y="810" fill="none" width="79" height="59.5"/>
	<text transform="matrix(1 0 0 1 410.9746 829.9922)" fill="#444444" font-family="'HelveticaNeue-Light'" font-size="28">50m</text>
</g>
<g>
	<rect x="410" y="902" fill="none" width="60" height="59.5"/>
	<text transform="matrix(1 0 0 1 410 921.9922)" fill="#444444" font-family="'HelveticaNeue-Light'" font-size="28">9t</text>
</g>
<g>
	<rect x="410" y="996.25" fill="none" width="126" height="59.5"/>
	<text transform="matrix(1 0 0 1 410 1016.2422)" fill="#444444" font-family="'HelveticaNeue-Light'" font-size="28">3t 15m</text>
</g>
<g>
	<rect x="25" y="810" fill="none" width="398" height="59.5"/>
	<text transform="matrix(1 0 0 1 25 829.9922)" fill="#444444" font-family="'HelveticaNeue-Light'" font-size="28">Blåtoppen t/r</text>
</g>
<g>
	<rect x="25" y="902" fill="none" width="398" height="59.5"/>
	<text transform="matrix(1 0 0 1 25 921.9922)" fill="#444444" font-family="'HelveticaNeue-Light'" font-size="28">Trøndermarsjen</text>
</g>
<g>
	<rect x="25" y="996.25" fill="none" width="398" height="59.5"/>
	<text transform="matrix(1 0 0 1 25 1016.2422)" fill="#444444" font-family="'HelveticaNeue-Light'" font-size="28">Søndagstrav</text>
</g>
<rect x="552.52" y="711.188" fill="none" width="50.482" height="56.812"/>
<text transform="matrix(1 0 0 1 572.4336 745.46)" fill="#ED555A" font-family="'HelveticaNeue-Light'" font-size="48">I</text>
<rect x="552.52" y="803.188" fill="none" width="50.482" height="56.812"/>
<text transform="matrix(1 0 0 1 572.4336 837.46)" fill="#ED555A" font-family="'HelveticaNeue-Light'" font-size="48">I</text>
<rect x="552.52" y="896.188" fill="none" width="50.482" height="56.812"/>
<text transform="matrix(1 0 0 1 572.4336 930.46)" fill="#ED555A" font-family="'HelveticaNeue-Light'" font-size="48">I</text>
<rect x="552.52" y="991.188" fill="none" width="50.482" height="56.812"/>
<text transform="matrix(1 0 0 1 572.4336 1025.46)" fill="#ED555A" font-family="'HelveticaNeue-Light'" font-size="48">I</text>
<rect x="5" y="1055" opacity="0.15" width="640" height="82"/>
<rect x="3" y="1031" fill="#444444" width="641" height="106"/>
<g>
	<g>
		<g>
			<path fill="#FFFFFF" stroke="#444444" stroke-miterlimit="10" d="M251.296,1066.016l-0.987-3.756l-0.074,0.019
				c-0.336-1.822-1.92-3.201-3.837-3.201c-2.16,0-3.911,1.751-3.911,3.909c0,0.454,0.093,0.885,0.234,1.288l-0.011,0.005
				l0.033,0.057c0.118,0.326,0.272,0.629,0.471,0.906l0.938,3.825"/>
			<path fill="#FFFFFF" stroke="#444444" stroke-miterlimit="10" d="M268.812,1088.188l-10.683-17.746
				c-0.087-0.161-0.187-0.313-0.283-0.471l-0.026-0.039c-1.396-2.199-3.775-3.717-6.524-3.916c-0.202-0.016-0.409-0.021-0.615-0.021
				c-2.627,0-4.976,1.195-6.528,3.073c-1.208,1.465-1.936,3.341-1.936,5.388c0,1.463,0.371,2.834,1.022,4.035l3.214,16.814"/>
		</g>
		<circle fill="#FFFFFF" stroke="#444444" stroke-miterlimit="10" cx="259.141" cy="1096.482" r="12.743"/>
	</g>
	<g>
		<g>
			<path fill="#FFFFFF" stroke="#444444" stroke-miterlimit="10" d="M234.847,1069.067l0.938-3.825
				c0.199-0.277,0.354-0.58,0.472-0.906l0.032-0.057l-0.01-0.005c0.142-0.403,0.234-0.834,0.234-1.288
				c0-2.158-1.751-3.909-3.912-3.909c-1.916,0-3.502,1.379-3.837,3.201l-0.073-0.019l-0.987,3.756"/>
			<path fill="#FFFFFF" stroke="#444444" stroke-miterlimit="10" d="M232.547,1095.305l3.213-16.814
				c0.652-1.201,1.022-2.572,1.022-4.035c0-2.047-0.728-3.923-1.936-5.388c-1.552-1.878-3.901-3.073-6.528-3.073
				c-0.205,0-0.412,0.006-0.614,0.021c-2.749,0.199-5.128,1.717-6.524,3.916l-0.027,0.039c-0.096,0.157-0.194,0.31-0.283,0.471
				l-10.682,17.746"/>
		</g>
		<circle fill="#FFFFFF" stroke="#444444" stroke-miterlimit="10" cx="219.858" cy="1096.482" r="12.743"/>
	</g>
	<path fill="#FFFFFF" stroke="#444444" stroke-miterlimit="10" d="M235.296,1080.752l-1.841,9.582
		c3.805-3.804,8.246-3.8,12.049,0.002l-1.803-9.583C240.884,1077.936,238.115,1077.934,235.296,1080.752z"/>
</g>
<g>
	<path fill="none" stroke="#FFFFFF" stroke-miterlimit="10" d="M582.84,1103.421c-3.39-4.939-9.09-3.114-11.032-6.866
		c0,0-0.28-2.897,0.021-3.331c2.151-3.092,3.162-8.09,3.388-9.104c0.15-0.674,0.656-1.233,0.836-1.488
		c0.041-0.059,0.42-2.29,0.465-3.74c0.098-3.232-0.682-1.703-0.74-2.294c-0.345-3.476-1.113-8.168-2.217-8.876
		c-2.455-1.574-5.383-2.928-8.037-2.764c-2.656-0.164-5.584,1.188-8.039,2.764c-1.104,0.706-1.871,5.397-2.216,8.874
		c-0.06,0.591-0.839-0.942-0.741,2.29c0.045,1.451,0.424,3.678,0.465,3.736c0.181,0.256,0.697,0.803,0.836,1.479
		c0.166,0.817,1.01,5.632,3.389,9.084c0.3,0.436,0.021,3.371,0.021,3.371c-1.943,3.752-7.758,2.922-11.033,6.866"/>
	<circle fill="none" stroke="#FFFFFF" stroke-miterlimit="10" cx="565.5" cy="1083.336" r="26.504"/>
</g>
<g>
	<path fill="none" stroke="#FFFFFF" stroke-miterlimit="10" d="M412.463,1072.396c0-9.104-7.381-16.485-16.486-16.485
		c-9.104,0-16.484,7.381-16.484,16.485c0,3.325,2.518,9.011,2.518,9.011l13.979,25.328l13.977-25.328
		C409.965,1081.406,412.463,1075.721,412.463,1072.396z"/>
	<path fill="none" stroke="#FFFFFF" stroke-miterlimit="10" d="M398.35,1102.46c5.041,0.42,8.82,2.18,8.82,4.271
		c0,2.42-5,4.369-11.18,4.369s-11.19-1.949-11.19-4.369c0-2.091,3.78-3.851,8.83-4.271"/>
</g>
<g>
	<g>
		<circle fill="none" stroke="#FFFFFF" stroke-miterlimit="10" cx="82" cy="1085" r="24.692"/>
		<path fill="#FFFFFF" stroke="#FFFFFF" stroke-miterlimit="10" d="M72.283,1063.207c0,0,1.384-0.432,1.28,0.907
			c-0.103,1.339,0.108-1.132,1.237-0.103s1.438,3.189,3.084,3.498s1.739-0.016,2.15-0.016c0.412,0,1.857-0.61,2.372-0.096
			s1.34,1.65,1.134,2.164c-0.205,0.516-1.85,0.105-2.056,0.826c-0.207,0.72-0.618,1.029,0,1.646
			c0.642,0.641-2.169,0.498-0.822,1.442c0.584,0.412-0.617,0.616,0.206,0.72c0.822,0.104,1.337,0,1.131,1.132
			c-0.205,1.132-0.309,0.618,0,1.235s-0.72,0.822-0.822,1.439c-0.104,0.617-0.823,0.617-1.441,0.822
			c-0.617,0.207-1.439,0.824-1.852,0.824s-1.234,1.028-2.263,0.617c-1.029-0.411-2.161-0.309-2.47,0.103s-1.973,1.622-1.655,2.046
			s-0.04,2.584-0.04,2.584s0.563,1.028,1.181,1.234s2.161-0.206,2.984,0c0.822,0.206,2.776-0.293,3.601,0.059
			c0.822,0.353,2.366,0.456,2.777,0.559c0.412,0.103,0.193,0.207,1.177,0.824c0.984,0.617,1.292,1.029,1.498,1.543
			s1.03,1.953,1.133,2.365s-0.206,1.439-0.618,2.16c-0.411,0.721,0.205,1.647-0.515,1.956S82,1096.214,82,1096.214
			s-2.159,1.337-2.367,2.16c-0.205,0.823-0.411,0.927-0.514,1.339c-0.103,0.41-0.954,1.131-0.478,1.646
			c0.478,0.515-1.44,3.394-2.094,3.806c-0.654,0.412-1.233-0.514-1.747-0.514c-0.516,0-0.208-1.749-0.208-1.749l-1.234-1.234
			c0,0,0.822-8.026,0.514-8.849s-2.159-1.234-3.497-1.646s-0.412-4.013-0.721-5.453c-0.307-1.433,0.352-2.121,0.721-2.626
			c0.41-0.562-0.207-4.986,0.822-4.576c1.029,0.412-3.807-1.234-2.572-0.926c1.235,0.309-4.465,2.881-4.67,2.367
			c-0.206-0.514,1.275-2.572,0.143-2.572c-1.131,0,1.11-2.778,0.516-2.47c-0.596,0.309,1.544-1.235,1.749-2.88
			c0.206-1.646-0.346-2.366-0.019-3.189c0.327-0.824-0.106-2.854-0.106-2.854L72.283,1063.207z"/>
	</g>
	<path fill="#FFFFFF" stroke="#FFFFFF" stroke-miterlimit="10" d="M91.307,1062.43c-1.312,0.711-0.999,2.468-0.923,3.002
		s0.991-0.582,1.525,0.105c0.534,0.686,1.144,1.139,1.449,1.139s0.229,1.504,0.382,1.809c0.152,0.307,0.169-1.113,0.855-1.189
		s0.746,0.291,0.898-0.318c0.152-0.611,0.812-2.565-0.331-2.871s-1.651-0.1-1.651-0.1l-0.823-0.217L91.307,1062.43z"/>
	<path fill="#FFFFFF" stroke="#FFFFFF" stroke-miterlimit="10" d="M103.195,1072.327c0,0-0.971,1.07-1.43,1.223
		c-0.457,0.152-1.914,1.999-2.22,2.839s-1.525,0.229-1.373,0.84s-0.335,0.381-0.464,1.449s-0.933,1.22,0.388,1.373
		c1.321,0.153,0.907,1.507,1.525,2.665c0.638,1.195,2.669-1.097,2.364-0.716s1.764-0.007,1.84,1.238s0.609,0.357,0.991,0.967
		s1.776-0.28,0.077,1.245c-0.143,0.127,0.533,0.61,0.838,0.534s-0.839,0.533-0.686,0.305c0.152-0.229,0.381,0.323,0.381,1.153
		s-0.305,0.372,0,1.44s1.197-2.056,1.197-2.056l-1.045-7.403l-0.912-4.229L103.195,1072.327z"/>
</g>
<rect x="5.119" y="630.985" fill="none" width="261" height="37.324"/>
<text transform="matrix(1 0 0 1 22.9883 658.1172)" fill="#ED555A" font-family="'HelveticaNeue-Light'" font-size="38">I NÆRHETEN</text>
<g>
	<line fill="none" stroke="#FFFFFF" stroke-miterlimit="10" x1="386.99" y1="1073.326" x2="404.797" y2="1073.326"/>
	<line fill="none" stroke="#FFFFFF" stroke-miterlimit="10" x1="395.895" y1="1082.231" x2="395.895" y2="1064.422"/>
</g>
<path fill="#ED555A" stroke="#FFFFFF" stroke-miterlimit="10" d="M578.5,153.5c0,3.866-3.134,7-7,7h-495c-3.867,0-7-3.134-7-7v-46
	c0-3.866,3.133-7,7-7h495c3.866,0,7,3.134,7,7V153.5z"/>
<path fill="#FFFFFF" stroke="#FFFFFF" stroke-width="2" stroke-miterlimit="10" stroke-opacity="0.15" d="M323.5,100.5v60h-247
	c-3.87,0-7-3.13-7-7v-46c0-3.87,3.13-7,7-7H323.5z"/>
<rect x="71" y="115.077" fill="none" width="261" height="90.845"/>
<text transform="matrix(1 0 0 1 158.9023 142.209)" fill="#ED555A" font-family="'HelveticaNeue-Light'" font-size="38">Turer</text>
<rect x="319" y="115.077" fill="none" width="261" height="90.845"/>
<text transform="matrix(1 0 0 1 385.4336 142.209)" fill="#FFFFFF" font-family="'HelveticaNeue-Light'" font-size="38">Brukere</text>
</svg>
