<?xml version="1.0" encoding="utf-8"?>
<!-- Generator: Adobe Illustrator 16.0.0, SVG Export Plug-In . SVG Version: 6.00 Build 0)  -->
<!DOCTYPE svg PUBLIC "-//W3C//DTD SVG 1.1//EN" "http://www.w3.org/Graphics/SVG/1.1/DTD/svg11.dtd">
<svg version="1.1" id="Layer_1" xmlns="http://www.w3.org/2000/svg" xmlns:xlink="http://www.w3.org/1999/xlink" x="0px" y="0px"
	 width="100.087px" height="100.103px" viewBox="0 0 100.087 100.103" enable-background="new 0 0 100.087 100.103"
	 xml:space="preserve">
<g>
	<g>
		<circle fill="#FFFFFF" stroke="#FFFFFF" stroke-miterlimit="10" cx="49.088" cy="49" r="26.782"/>
		<path fill="#444444" stroke="#444444" stroke-miterlimit="10" d="M37.216,23.52c0,0,2.833,1.375,2.721,2.827
			c-0.111,1.452,0.117-1.228,1.342-0.111s1.559,3.46,3.346,3.794c1.785,0.335,1.887-0.018,2.332-0.018
			c0.447,0,2.015-0.661,2.572-0.104c0.559,0.559,1.453,1.791,1.23,2.348c-0.223,0.559-2.006,0.114-2.23,0.896
			c-0.225,0.78-0.669,1.116,0,1.785c0.695,0.695-2.352,0.541-0.891,1.564c0.633,0.447-0.67,0.668,0.223,0.781
			c0.893,0.111,1.45,0,1.227,1.228c-0.223,1.228-0.334,0.671,0,1.34s-0.781,0.892-0.892,1.562c-0.112,0.669-0.894,0.669-1.563,0.892
			c-0.67,0.225-1.562,0.894-2.008,0.894c-0.447,0-1.34,1.115-2.455,0.67c-1.117-0.446-2.344-0.335-2.678,0.111
			c-0.336,0.445-2.141,1.76-1.796,2.219S37.651,49,37.651,49s0.611,1.115,1.281,1.339s2.344-0.224,3.236,0s3.013-0.317,3.906,0.063
			c0.891,0.383,2.566,0.494,3.012,0.605c0.447,0.111,0.21,0.225,1.276,0.895c1.067,0.67,1.401,1.116,1.625,1.674
			c0.224,0.557,1.116,2.118,1.229,2.564c0.111,0.447-0.224,1.562-0.671,2.344c-0.445,0.781,0.223,1.787-0.558,2.121
			c-0.78,0.335-2.901,0.558-2.901,0.558s-2.342,1.45-2.566,2.343c-0.223,0.893-0.447,1.006-0.559,1.452
			c-0.111,0.444-1.034,1.227-0.518,1.784c0.518,0.559-1.561,3.682-2.271,4.129c-0.709,0.447-1.336-0.558-1.895-0.558
			s-0.227-1.897-0.227-1.897l-1.338-1.338c0,0,0.891-8.706,0.557-9.598c-0.334-0.893-2.342-1.34-3.793-1.785
			s-0.446-4.353-0.781-5.914c-0.332-1.555,0.381-2.301,0.781-2.85c0.447-0.609-0.223-5.408,0.893-4.963
			c1.115,0.447-4.129-1.339-2.79-1.004c1.339,0.334-4.843,3.125-5.065,2.567s1.384-2.79,0.156-2.79
			c-1.229,0,1.203-3.014,0.559-2.679c-0.646,0.335,1.674-1.34,1.896-3.124c0.223-1.785-0.375-2.566-0.021-3.459
			c0.355-0.895-1.115-4.096-1.115-4.096L37.216,23.52z"/>
	</g>
	<path fill="#444444" stroke="#444444" stroke-miterlimit="10" d="M60.183,22.52c-1.425,0.771-2.085,4.676-2.002,5.256
		c0.082,0.58,1.074-0.631,1.654,0.114c0.58,0.743,1.24,1.235,1.572,1.235c0.33,0,0.248,1.631,0.414,1.961
		c0.164,0.333,0.184-1.207,0.928-1.289c0.744-0.083,0.81,0.314,0.975-0.346c0.166-0.663,1.881-4.783,0.641-5.114
		s-1.791-0.108-1.791-0.108l-0.893-0.234L60.183,22.52z"/>
	<path fill="#444444" stroke="#444444" stroke-miterlimit="10" d="M73.075,34.254c0,0-2.053,2.162-2.549,2.326
		c-0.496,0.166-2.077,2.169-2.408,3.08c-0.332,0.91-1.654,0.248-1.49,0.91c0.166,0.662-0.362,0.414-0.502,1.572
		c-0.141,1.158-1.012,1.322,0.42,1.489s0.984,1.634,1.654,2.891c0.692,1.296,2.896-1.189,2.565-0.776s1.913-0.008,1.995,1.344
		c0.082,1.35,0.66,0.387,1.074,1.048s1.927-0.304,0.084,1.351c-0.153,0.139,0.579,0.662,0.91,0.58c0.33-0.084-0.91,0.578-0.745,0.33
		c0.166-0.248,0.413,0.35,0.413,1.25s0.651,1.723,1.373,2.688c0.84,1.125,0.926-4.354,0.926-4.354l-1.133-8.031l-0.988-4.586
		L73.075,34.254z"/>
</g>
</svg>
