<?xml version="1.0" encoding="utf-8"?>
<!-- Generator: Adobe Illustrator 16.0.0, SVG Export Plug-In . SVG Version: 6.00 Build 0)  -->
<!DOCTYPE svg PUBLIC "-//W3C//DTD SVG 1.1//EN" "http://www.w3.org/Graphics/SVG/1.1/DTD/svg11.dtd">
<svg version="1.1" id="Layer_1" xmlns="http://www.w3.org/2000/svg" xmlns:xlink="http://www.w3.org/1999/xlink" x="0px" y="0px"
	 width="100.087px" height="100.103px" viewBox="0 0 100.087 100.103" enable-background="new 0 0 100.087 100.103"
	 xml:space="preserve">
<g>
	<path fill="none" stroke="#FFFFFF" stroke-miterlimit="10" d="M67.384,69.188c-3.39-4.939-9.09-3.114-11.032-6.866
		c0,0-0.28-2.897,0.021-3.331c2.151-3.092,3.162-8.09,3.388-9.104c0.15-0.674,0.656-1.233,0.836-1.488
		c0.041-0.059,0.42-2.29,0.465-3.74c0.098-3.232-0.682-1.703-0.74-2.294c-0.345-3.476-1.113-8.168-2.217-8.876
		c-2.457-1.574-5.383-2.928-8.037-2.764c-2.656-0.164-5.584,1.188-8.039,2.764c-1.104,0.706-1.871,5.397-2.216,8.874
		c-0.06,0.591-0.839-0.942-0.741,2.29c0.045,1.451,0.424,3.678,0.465,3.736c0.181,0.256,0.697,0.803,0.836,1.479
		c0.166,0.817,1.01,5.632,3.389,9.084c0.3,0.436,0.021,3.371,0.021,3.371c-1.943,3.752-7.758,2.922-11.033,6.866"/>
	<circle fill="none" stroke="#FFFFFF" stroke-miterlimit="10" cx="50.044" cy="49.103" r="26.504"/>
</g>
</svg>
