<?xml version="1.0" encoding="utf-8"?>
<!-- Generator: Adobe Illustrator 16.0.0, SVG Export Plug-In . SVG Version: 6.00 Build 0)  -->
<!DOCTYPE svg PUBLIC "-//W3C//DTD SVG 1.1//EN" "http://www.w3.org/Graphics/SVG/1.1/DTD/svg11.dtd">
<svg version="1.1" id="Layer_1" xmlns="http://www.w3.org/2000/svg" xmlns:xlink="http://www.w3.org/1999/xlink" x="0px" y="0px"
	 width="100.087px" height="100.103px" viewBox="0 0 100.087 100.103" enable-background="new 0 0 100.087 100.103"
	 xml:space="preserve">
<g>
	<circle fill="#444444" stroke="#FFFFFF" stroke-miterlimit="10" cx="50.979" cy="48.806" r="26.504"/>
	<path fill="#FFFFFF" d="M68.745,68.05c-3.389-4.854-9.539-2.321-11.48-6.009c0,0-0.281-2.848,0.021-3.273
		c2.152-3.038,3.162-7.949,3.389-8.948c0.15-0.662,0.654-1.212,0.836-1.463c0.041-0.057,0.419-2.25,0.463-3.676
		c0.1-3.176-0.681-1.674-0.739-2.254c-0.345-3.416-1.113-8.027-2.217-8.724c-2.456-1.547-5.384-2.878-8.038-2.716
		c-2.654-0.162-5.582,1.168-8.037,2.716c-1.104,0.694-1.873,5.305-2.217,8.722c-0.061,0.58-0.839-0.926-0.74,2.25
		c0.043,1.427,0.423,3.615,0.463,3.672c0.182,0.252,0.699,0.789,0.836,1.453c0.166,0.804,1.012,5.535,3.389,8.928
		c0.301,0.429,0.022,3.313,0.022,3.313c-1.942,3.688-8.212,2.037-11.487,5.913c0,0,7.051,7.169,17.771,7.169
		S68.745,68.05,68.745,68.05z"/>
</g>
</svg>
