<?xml version="1.0" encoding="utf-8"?>
<!-- Generator: Adobe Illustrator 16.0.0, SVG Export Plug-In . SVG Version: 6.00 Build 0)  -->
<!DOCTYPE svg PUBLIC "-//W3C//DTD SVG 1.1//EN" "http://www.w3.org/Graphics/SVG/1.1/DTD/svg11.dtd">
<svg version="1.1" id="Layer_1" xmlns="http://www.w3.org/2000/svg" xmlns:xlink="http://www.w3.org/1999/xlink" x="0px" y="0px"
	 width="100.087px" height="100.103px" viewBox="0 0 100.087 100.103" enable-background="new 0 0 100.087 100.103"
	 xml:space="preserve">
<g>
	<g>
		<circle fill="none" stroke="#FFFFFF" stroke-miterlimit="10" cx="49.881" cy="49.803" r="27.475"/>
		<path fill="none" stroke="#FFFFFF" stroke-miterlimit="10" d="M38.721,24.689c0,0,1.888,0.385,1.773,1.874
			c-0.115,1.489,0.12-1.259,1.376-0.114c1.257,1.146,1.6,3.549,3.431,3.893c1.832,0.344,1.936-0.018,2.395-0.018
			c0.457,0,2.066-0.68,2.639-0.106c0.572,0.572,1.49,1.837,1.262,2.407c-0.229,0.574-2.059,0.118-2.287,0.92
			c-0.23,0.801-0.688,1.145,0,1.832c0.713,0.713-2.414,0.555-0.916,1.605c0.65,0.458-0.686,0.686,0.23,0.801
			c0.914,0.115,1.486,0,1.258,1.259s-0.344,0.688,0,1.374c0.344,0.688-0.801,0.916-0.916,1.602
			c-0.115,0.688-0.916,0.688-1.604,0.916c-0.686,0.23-1.602,0.917-2.061,0.917c-0.457,0-1.373,1.144-2.518,0.687
			s-2.404-0.344-2.747,0.114c-0.344,0.458-2.195,1.805-1.842,2.276c0.354,0.472-0.045,2.875-0.045,2.875s0.627,1.145,1.313,1.373
			c0.687,0.23,2.404-0.229,3.32,0c0.916,0.23,3.092-0.325,4.008,0.066c0.914,0.392,2.633,0.507,3.09,0.621
			c0.459,0.113,0.215,0.23,1.309,0.917c1.096,0.687,1.438,1.146,1.668,1.717c0.229,0.571,1.146,2.173,1.26,2.632
			s-0.229,1.602-0.688,2.403c-0.457,0.802,0.229,1.833-0.572,2.177s-2.977,0.571-2.977,0.571s-2.402,1.487-2.633,2.403
			s-0.459,1.031-0.572,1.49c-0.115,0.457-1.062,1.258-0.531,1.831s-1.603,3.776-2.33,4.234c-0.729,0.458-1.372-0.571-1.944-0.571
			c-0.573,0-0.231-1.946-0.231-1.946l-1.373-1.374c0,0,0.914-8.93,0.571-9.846c-0.343-0.914-2.403-1.373-3.892-1.83
			c-1.488-0.458-0.459-4.465-0.802-6.068c-0.341-1.594,0.392-2.359,0.802-2.922c0.457-0.626-0.229-5.549,0.915-5.092
			c1.146,0.459-4.235-1.373-2.862-1.03c1.375,0.344-4.968,3.206-5.195,2.634c-0.23-0.571,1.418-2.861,0.159-2.861
			s1.233-3.092,0.573-2.748c-0.664,0.343,1.717-1.375,1.945-3.205c0.229-1.832-0.385-2.633-0.021-3.549
			c0.364-0.917-2.278-1.008-0.118-3.175C35.061,26.459,38.721,24.689,38.721,24.689z"/>
	</g>
	<path fill="none" stroke="#FFFFFF" stroke-miterlimit="10" d="M60.34,24.39c-1.462,0.791-1.215,3.045-1.131,3.64
		c0.085,0.594,1.104-0.648,1.697,0.117c0.594,0.763,1.273,1.268,1.613,1.268c0.339,0,0.255,1.673,0.424,2.012
		c0.17,0.342,0.188-1.238,0.953-1.323c0.764-0.085,0.83,0.323,1-0.354c0.169-0.68,2.32-1.452-0.369-3.193
		C62.225,25.064,60.34,24.39,60.34,24.39z"/>
	<path fill="none" stroke="#FFFFFF" stroke-miterlimit="10" d="M73.465,35.701c0,0-1.08,1.191-1.59,1.361s-2.131,2.225-2.471,3.158
		c-0.34,0.936-1.697,0.256-1.528,0.936c0.169,0.678-0.372,0.423-0.517,1.611c-0.143,1.189-1.037,1.357,0.432,1.528
		c1.47,0.171,1.01,1.677,1.697,2.966c0.71,1.33,2.971-1.221,2.632-0.797s1.962-0.008,2.046,1.378
		c0.086,1.386,0.68,0.397,1.104,1.075s1.977-0.312,0.086,1.387c-0.158,0.141,0.594,0.678,0.933,0.594
		c0.339-0.085-0.934,0.593-0.764,0.339c0.17-0.255,0.425,0.359,0.425,1.283s-0.341,0.414,0,1.603c0.339,1.189,1.33-2.287,1.33-2.287
		C78.178,43.355,73.465,35.701,73.465,35.701z"/>
</g>
</svg>
