<?xml version="1.0" encoding="utf-8"?>
<!-- Generator: Adobe Illustrator 16.0.0, SVG Export Plug-In . SVG Version: 6.00 Build 0)  -->
<!DOCTYPE svg PUBLIC "-//W3C//DTD SVG 1.1//EN" "http://www.w3.org/Graphics/SVG/1.1/DTD/svg11.dtd">
<svg version="1.1" id="Layer_1" xmlns="http://www.w3.org/2000/svg" xmlns:xlink="http://www.w3.org/1999/xlink" x="0px" y="0px"
	 width="100.087px" height="100.103px" viewBox="0 0 100.087 100.103" enable-background="new 0 0 100.087 100.103"
	 xml:space="preserve">
<g>
	<g>
		<g>
			<path fill="none" stroke="#FFFFFF" stroke-miterlimit="10" d="M61.474,35.917l-0.988-3.756l-0.072,0.019
				c-0.336-1.822-1.921-3.201-3.838-3.201c-2.16,0-3.911,1.751-3.911,3.909c0,0.454,0.093,0.885,0.234,1.288l-0.011,0.005
				l0.033,0.057c0.117,0.326,0.272,0.629,0.471,0.906l0.939,3.825"/>
			<path fill="none" stroke="#FFFFFF" stroke-miterlimit="10" d="M78.991,58.089L68.308,40.343
				c-0.088-0.161-0.187-0.313-0.283-0.471l-0.026-0.039c-1.397-2.199-3.776-3.717-6.524-3.916c-0.202-0.016-0.409-0.021-0.615-0.021
				c-2.627,0-4.977,1.195-6.527,3.073c-1.209,1.465-1.936,3.341-1.936,5.388c0,1.463,0.369,2.834,1.021,4.035l3.214,16.814"/>
		</g>
		<circle fill="none" stroke="#FFFFFF" stroke-miterlimit="10" cx="69.318" cy="66.384" r="12.743"/>
	</g>
	<g>
		<g>
			<path fill="none" stroke="#FFFFFF" stroke-miterlimit="10" d="M45.024,38.969l0.939-3.825c0.198-0.277,0.353-0.58,0.471-0.906
				l0.033-0.057l-0.012-0.005c0.143-0.403,0.234-0.834,0.234-1.288c0-2.158-1.75-3.909-3.91-3.909c-1.918,0-3.502,1.379-3.838,3.201
				l-0.073-0.019l-0.987,3.756"/>
			<path fill="none" stroke="#FFFFFF" stroke-miterlimit="10" d="M42.724,65.206l3.215-16.814c0.65-1.201,1.021-2.572,1.021-4.035
				c0-2.047-0.728-3.923-1.936-5.388c-1.553-1.878-3.9-3.073-6.527-3.073c-0.207,0-0.413,0.006-0.615,0.021
				c-2.749,0.199-5.129,1.717-6.525,3.916l-0.025,0.039c-0.097,0.157-0.195,0.31-0.283,0.471L20.364,58.089"/>
		</g>
		<circle fill="none" stroke="#FFFFFF" stroke-miterlimit="10" cx="30.037" cy="66.384" r="12.743"/>
	</g>
	<path fill="none" stroke="#FFFFFF" stroke-miterlimit="10" d="M45.474,50.653l-1.841,9.582c3.804-3.804,8.245-3.8,12.049,0.002
		l-1.802-9.583C51.062,47.837,48.293,47.835,45.474,50.653z"/>
</g>
</svg>
