<?xml version="1.0" encoding="utf-8"?>
<!-- Generator: Adobe Illustrator 16.0.0, SVG Export Plug-In . SVG Version: 6.00 Build 0)  -->
<!DOCTYPE svg PUBLIC "-//W3C//DTD SVG 1.1//EN" "http://www.w3.org/Graphics/SVG/1.1/DTD/svg11.dtd">
<svg version="1.1" id="Layer_1" xmlns="http://www.w3.org/2000/svg" xmlns:xlink="http://www.w3.org/1999/xlink" x="0px" y="0px"
	 width="119.789px" height="119.986px" viewBox="0 0 119.789 119.986" enable-background="new 0 0 119.789 119.986"
	 xml:space="preserve">
<g>
	<g>
		<g>
			<path fill="#CBCBCB" d="M45.741,27.459c7.408-1.906,15.578,0.549,20.644,6.925c1.638,2.06,2.803,4.344,3.511,6.721
				c2.265,7.594-0.14,16.137-6.724,21.37c-2.268,1.801-4.809,3.032-7.443,3.711c-7.408,1.905-15.578-0.551-20.646-6.927
				c-4.519-5.686-5.442-13.072-3.085-19.417c1.227-3.303,3.34-6.319,6.298-8.67C40.564,29.369,43.104,28.137,45.741,27.459
				 M44.807,23.822l0.936,3.637L44.807,23.822c-2.905,0.748-6.213,2.316-8.847,4.408c-3.392,2.696-5.979,6.259-7.482,10.303
				c-1.397,3.764-1.822,7.851-1.229,11.819c0.613,4.097,2.307,7.984,4.895,11.243c2.911,3.66,6.791,6.36,11.223,7.803
				c4.315,1.405,8.914,1.551,13.299,0.424c3.234-0.832,6.21-2.316,8.844-4.408c3.785-3.009,6.529-7.034,7.936-11.645
				c1.373-4.496,1.39-9.248,0.051-13.738c-0.864-2.905-2.268-5.592-4.169-7.984c-2.909-3.66-6.789-6.359-11.221-7.802
				C53.789,22.841,49.649,22.576,44.807,23.822L44.807,23.822z"/>
		</g>
		
			<rect x="55.048" y="76.403" transform="matrix(0.6222 0.7829 -0.7829 0.6222 90.9797 -29.9281)" fill="#CBCBCB" width="42.895" height="5.777"/>
	</g>
</g>
</svg>
