<?xml version="1.0" encoding="utf-8"?>
<!-- Generator: Adobe Illustrator 16.0.0, SVG Export Plug-In . SVG Version: 6.00 Build 0)  -->
<!DOCTYPE svg PUBLIC "-//W3C//DTD SVG 1.1//EN" "http://www.w3.org/Graphics/SVG/1.1/DTD/svg11.dtd">
<svg version="1.1" id="Layer_1" xmlns="http://www.w3.org/2000/svg" xmlns:xlink="http://www.w3.org/1999/xlink" x="0px" y="0px"
	 width="100.087px" height="100.103px" viewBox="0 0 100.087 100.103" enable-background="new 0 0 100.087 100.103"
	 xml:space="preserve">
<g>
	<g>
		<g>
			<path fill="#FFFFFF" stroke="#444444" stroke-miterlimit="10" d="M62.296,35.016l-0.987-3.756l-0.074,0.019
				c-0.336-1.822-1.92-3.201-3.837-3.201c-2.16,0-3.911,1.751-3.911,3.909c0,0.454,0.093,0.885,0.234,1.288l-0.011,0.005
				l0.033,0.057c0.118,0.326,0.272,0.629,0.471,0.906l0.938,3.825"/>
			<path fill="#FFFFFF" stroke="#444444" stroke-miterlimit="10" d="M79.812,57.188L69.13,39.441
				c-0.087-0.161-0.187-0.313-0.283-0.471l-0.026-0.039c-1.396-2.199-3.775-3.717-6.524-3.916c-0.202-0.016-0.409-0.021-0.615-0.021
				c-2.627,0-4.976,1.195-6.528,3.073c-1.208,1.465-1.936,3.341-1.936,5.388c0,1.463,0.371,2.834,1.022,4.035l3.214,16.814"/>
		</g>
		<circle fill="#FFFFFF" stroke="#444444" stroke-miterlimit="10" cx="70.141" cy="65.482" r="12.743"/>
	</g>
	<g>
		<g>
			<path fill="#FFFFFF" stroke="#444444" stroke-miterlimit="10" d="M45.847,38.067l0.938-3.825c0.199-0.277,0.354-0.58,0.472-0.906
				l0.032-0.057l-0.01-0.005c0.142-0.403,0.234-0.834,0.234-1.288c0-2.158-1.751-3.909-3.912-3.909
				c-1.916,0-3.502,1.379-3.837,3.201l-0.073-0.019l-0.987,3.756"/>
			<path fill="#FFFFFF" stroke="#444444" stroke-miterlimit="10" d="M43.547,64.305L46.76,47.49
				c0.652-1.201,1.022-2.572,1.022-4.035c0-2.047-0.728-3.923-1.936-5.388c-1.552-1.878-3.901-3.073-6.528-3.073
				c-0.205,0-0.412,0.006-0.614,0.021c-2.749,0.199-5.128,1.717-6.524,3.916l-0.027,0.039c-0.096,0.157-0.194,0.31-0.283,0.471
				L21.188,57.188"/>
		</g>
		<circle fill="#FFFFFF" stroke="#444444" stroke-miterlimit="10" cx="30.858" cy="65.482" r="12.743"/>
	</g>
	<path fill="#FFFFFF" stroke="#444444" stroke-miterlimit="10" d="M46.296,49.752l-1.841,9.582c3.805-3.804,8.246-3.8,12.049,0.002
		l-1.803-9.583C51.884,46.936,49.115,46.934,46.296,49.752z"/>
</g>
</svg>
