<?xml version="1.0" encoding="utf-8"?>
<!-- Generator: Adobe Illustrator 16.0.0, SVG Export Plug-In . SVG Version: 6.00 Build 0)  -->
<!DOCTYPE svg PUBLIC "-//W3C//DTD SVG 1.1//EN" "http://www.w3.org/Graphics/SVG/1.1/DTD/svg11.dtd">
<svg version="1.1" id="Layer_1" xmlns="http://www.w3.org/2000/svg" xmlns:xlink="http://www.w3.org/1999/xlink" x="0px" y="0px"
	 width="100.087px" height="100.103px" viewBox="0 0 100.087 100.103" enable-background="new 0 0 100.087 100.103"
	 xml:space="preserve">
<g>
	<g>
		<line fill="none" stroke="#FFFFFF" stroke-miterlimit="10" x1="39.074" y1="39.9" x2="56.881" y2="39.9"/>
		<line fill="none" stroke="#FFFFFF" stroke-miterlimit="10" x1="47.978" y1="48.806" x2="47.978" y2="30.996"/>
	</g>
	<g>
		<path fill="none" stroke="#FFFFFF" stroke-miterlimit="10" d="M64.463,38.065c0-9.104-7.381-16.485-16.486-16.485
			c-9.104,0-16.484,7.381-16.484,16.485c0,3.325,2.518,9.011,2.518,9.011l13.979,25.328l13.977-25.328
			C61.965,47.076,64.463,41.391,64.463,38.065z"/>
		<path fill="none" stroke="#FFFFFF" stroke-miterlimit="10" d="M50.35,68.13c5.041,0.42,8.82,2.18,8.82,4.271
			c0,2.42-5,4.369-11.18,4.369S36.8,74.82,36.8,72.4c0-2.091,3.78-3.851,8.829-4.271"/>
	</g>
</g>
</svg>
